<?xml version="1.0" encoding="utf-8"?>
<!-- Generator: Adobe Illustrator 14.0.0, SVG Export Plug-In . SVG Version: 6.00 Build 43363)  -->
<!DOCTYPE svg PUBLIC "-//W3C//DTD SVG 1.1//EN" "http://www.w3.org/Graphics/SVG/1.1/DTD/svg11.dtd">
<svg version="1.1" id="Layer_1" xmlns="http://www.w3.org/2000/svg" xmlns:xlink="http://www.w3.org/1999/xlink" x="0px" y="0px"
	 width="24px" height="24px" viewBox="0 0 24 24" enable-background="new 0 0 24 24" xml:space="preserve">
<path fill="none" d="M0,0h24v24H0V0z"/>
<g>
	<g>
		<g>
			<path fill="#FFFFFF" d="M14,22.5h-4c-0.5,0-0.925-0.368-0.986-0.857l-0.339-2.365c-0.452-0.206-0.89-0.461-1.308-0.759
				l-2.23,0.896c-0.517,0.188-1.008-0.028-1.236-0.443L1.907,15.52c-0.243-0.445-0.138-0.98,0.243-1.281l1.892-1.479
				C4.016,12.509,4,12.254,4,12s0.016-0.508,0.042-0.758l-1.89-1.478c-0.391-0.31-0.494-0.862-0.243-1.288L3.907,5.02
				c0.226-0.413,0.77-0.613,1.226-0.436L7.37,5.483c0.436-0.309,0.867-0.56,1.305-0.76l0.34-2.374C9.075,1.869,9.5,1.5,10,1.5h4
				c0.501,0,0.925,0.369,0.986,0.857l0.339,2.365c0.452,0.206,0.89,0.46,1.309,0.759l2.229-0.896
				c0.519-0.188,1.009,0.028,1.235,0.445l1.994,3.449c0.243,0.448,0.138,0.982-0.243,1.283l-1.891,1.479
				C19.984,11.488,20,11.739,20,12s-0.016,0.512-0.041,0.76l1.889,1.477c0.383,0.302,0.488,0.836,0.252,1.271l-2.007,3.473
				c-0.167,0.308-0.5,0.504-0.861,0.504l0,0c-0.125,0-0.247-0.022-0.364-0.068l-2.236-0.898c-0.437,0.308-0.867,0.559-1.306,0.76
				l-0.34,2.374C14.925,22.132,14.501,22.5,14,22.5L14,22.5z M7.518,17.38l0.227,0.174c0.496,0.381,1.026,0.688,1.575,0.913
				l0.265,0.108l0.42,2.934L14,21.5c0.002,0,0.003,0,0.003,0l0.413-2.925l0.265-0.108c0.527-0.216,1.045-0.516,1.58-0.917
				l0.226-0.168l2.75,1.104l1.991-3.467l-2.33-1.82l0.036-0.282C18.972,12.617,19,12.318,19,12s-0.028-0.617-0.066-0.917
				l-0.036-0.282l2.335-1.825L19.228,5.52l-2.745,1.1l-0.227-0.174c-0.504-0.387-1.019-0.686-1.575-0.914l-0.265-0.109l-0.421-2.933
				L10,2.5L9.584,5.424L9.319,5.532C8.792,5.749,8.275,6.049,7.74,6.45L7.515,6.619L4.764,5.514L2.773,8.98l2.328,1.821
				l-0.035,0.281C5.028,11.382,5,11.691,5,12s0.028,0.618,0.066,0.918L5.101,13.2l-2.333,1.823l2.005,3.457L7.518,17.38L7.518,17.38
				z M12,16c-2.206,0-4-1.794-4-4c0-2.206,1.794-4,4-4c2.206,0,4,1.794,4,4C16,14.206,14.206,16,12,16L12,16z M12,9
				c-1.654,0-3,1.346-3,3s1.346,3,3,3s3-1.346,3-3S13.654,9,12,9L12,9z"/>
		</g>
	</g>
</g>
</svg>
